# xmcd CD database file
#
# Track frame offsets:
#	150
#	25906
#	58871
#	83548
#	119268
#	143666
#	169715
#	190588
#	213583
#
# Disc length: 3748 seconds
#
# Revision: 0
# Processed by: cddbd v1.5.2PL0 Copyright (c) Steve Scherf et al.
# Submitted via: CDex 1.51
#
DISCID=730ea209
DTITLE=T.R.E. - Passaggi
DYEAR=2005
DGENRE=Jazz
TTITLE0=Pianure
TTITLE1=Taxi Morning
TTITLE2=Crepuscolo
TTITLE3=Il giorno dopo il 9 aprile
TTITLE4=Riflessi
TTITLE5=Le sue ali
TTITLE6=Sol-la nin-na
TTITLE7=goga-mui-goga
TTITLE8=Ja Ja
EXTD=YEAR: 2005
EXTT0=
EXTT1=
EXTT2=
EXTT3=
EXTT4=
EXTT5=
EXTT6=
EXTT7=
EXTT8=
PLAYORDER=
